<?xml version="1.0" standalone="no"?><!DOCTYPE svg PUBLIC "-//W3C//DTD SVG 1.1//EN" "http://www.w3.org/Graphics/SVG/1.1/DTD/svg11.dtd"><svg t="1583150340210" class="icon" viewBox="0 0 1099 1024" version="1.1" xmlns="http://www.w3.org/2000/svg" p-id="3515" xmlns:xlink="http://www.w3.org/1999/xlink" width="68.6875" height="64"><defs><style type="text/css"></style></defs><path d="M716.56 349.5c-11.5-11.8-25-7.9-36.6 4.8L526.16 512.2 366.16 352.4c-11.8-10.8-23-14.8-34.1-3.7-9.1 10.6-8.2 20.3 4.1 33.6l157.3 160.4L338.16 699.5c-11.1 11.4-16.6 22.9-3.6 34.9 14.3 13.2 25.9 3 35.4-6.5L526.16 571.4l159.4 154.8c11.4 10.3 23.1 17.5 32.9 8.9 12-10.4 7.3-21.2-4-33.8L556.96 542.7l155.7-162.4C722.26 369.1 725.46 358.2 716.56 349.5zM479.76 538.8" p-id="3516" fill="#d81e06"></path></svg>