<svg t="1607517477739" class="icon" viewBox="0 0 1024 1024" version="1.1" xmlns="http://www.w3.org/2000/svg" p-id="3313" width="16" height="16"><path d="M662.045 471.604c-1.742 0-3.442 0.176-5.094 0.502a13.304 13.304 0 0 0-3.57-0.502H400.468c-0.749 0-1.471 0.077-2.171 0.192a26.869 26.869 0 0 0-3.14-0.192c-14.838 0-26.854 12.337-26.854 27.555 0 15.221 12.016 27.558 26.853 27.558 1.054 0 2.104-0.071 3.14-0.197 0.7 0.12 1.423 0.197 2.172 0.197h252.915c1.22 0 2.425-0.186 3.569-0.501 1.651 0.325 3.351 0.501 5.094 0.501 14.825 0 26.84-12.337 26.84-27.558-0.002-15.218-12.015-27.555-26.84-27.555z m102.271 116.702c-1.748 0-3.463 0.177-5.122 0.496a13.02 13.02 0 0 0-3.569-0.496H400.462c-0.75 0-1.466 0.077-2.165 0.188a27.268 27.268 0 0 0-3.147-0.188c-14.837 0-26.847 12.333-26.847 27.558 0 15.213 12.016 27.556 26.847 27.556 1.06 0 2.11-0.077 3.147-0.198 0.7 0.121 1.414 0.198 2.165 0.198h355.163c1.243 0 2.449-0.187 3.57-0.508 1.658 0.332 3.373 0.508 5.121 0.508 14.82 0 26.833-12.343 26.833-27.556 0-15.225-12.007-27.558-26.833-27.558z m0 116.7c-1.748 0-3.463 0.177-5.122 0.497a13.02 13.02 0 0 0-3.569-0.496H400.462c-0.75 0-1.466 0.064-2.165 0.187a27.041 27.041 0 0 0-3.147-0.187c-14.837 0-26.847 12.33-26.847 27.555 0 15.213 12.016 27.558 26.847 27.558 1.06 0 2.11-0.078 3.147-0.2 0.7 0.122 1.414 0.2 2.165 0.2h355.163c1.243 0 2.449-0.19 3.57-0.508 1.658 0.331 3.373 0.508 5.121 0.508 14.82 0 26.833-12.344 26.833-27.558 0-15.224-12.007-27.555-26.833-27.555z m195.758 198.068V118.669s1.477-55.784-63.862-55.784H123.44c-62.435 0-63.89 55.784-63.89 55.784v784.475c0-0.07-0.199 55.79 63.89 55.79h182.21c0.594 0 1.186 0.04 1.77 0.04 0.656 0 1.3-0.04 1.96-0.04h586.826c66.626 0 63.868-55.86 63.868-55.86z m-704.756 2.64l-110.746 0.07c-27.975 0-31.234-25.695-31.234-25.695V138.613c0-24.628 31.346-21.507 31.346-21.507h110.634v788.608z m621.9-0.96H310.037v-787.65h281.991V356.32l84.67-77.34 85.366 77.34V117.104h113.172c31.717 0 30.116 21.612 30.116 21.612v744.435s1.55 21.603-28.134 21.603z" p-id="3314" fill="#1296db"></path></svg>