<svg t="1607522113129" class="icon" viewBox="0 0 1170 1024" version="1.1" xmlns="http://www.w3.org/2000/svg" p-id="5289" width="32" height="32"><path d="M576.28571416 785.21428584c-159.94285752 127.67142832-260.67857168 177.3-302.27142832 149.01428584-41.59285752-28.28571416-22.37142833-133.52142832 57.72857168-315.64285752C153.28571416 514.05714248 71.77142832 439.55 87.2 395.19285752c15.36428584-44.35714248 127.99285752-59.65714248 337.95-46.02857168C475.55 157.78571416 525.88571416 62 576.28571416 62s100.73571416 95.72142833 151.13571416 287.1c209.76428584-14.20714248 322.39285752 1.15714248 337.95 46.02857168 15.62142832 45-65.89285752 119.44285752-244.54285664 223.52142832 78.55714248 183.08571416 97.84285752 288.25714248 57.7285708 315.57857167-40.05 27.25714248-140.78571416-22.37142833-302.27142832-149.01428583z" fill="#d81e06" p-id="5290"></path></svg>